# xmcd CD database file
#
# Track frame offsets:
#	150
#	19275
#	40200
#	59400
#	84075
#	108150
#	134925
#	156300
#	175950
#	196725
#	218700
#
# Disc length: 3214 seconds
#
# Revision: 1
# Processed by: cddbd v1.5.1PL0 Copyright (c) Steve Scherf et al.
# Submitted via: freeDBTagger 0.5
#
DISCID=960c8c0b
DTITLE=聖飢魔II - メフィストフェレスの肖像
DYEAR=1996
DGENRE=rock
TTITLE0=地獄の皇太子は二度死ぬ
TTITLE1=凍てついた街
TTITLE2=GREAT DEVOTION
TTITLE3=PAINT ME BLACK
TTITLE4=野獣
TTITLE5=メフィストフェレスの肖像
TTITLE6=WHO KILLS DEMON? 〜誰が悪魔を亡きものにするのか〜
TTITLE7=黒服のあいつ
TTITLE8=サロメは還って殺意をしるし
TTITLE9=HOLY BLOOD 〜闘いの血統〜
TTITLE10=悪魔のブルース
EXTD=YEAR: 1996
EXTT0=
EXTT1=
EXTT2=
EXTT3=
EXTT4=
EXTT5=
EXTT6=
EXTT7=
EXTT8=
EXTT9=
EXTT10=
PLAYORDER=
